<svg xmlns="http://www.w3.org/2000/svg" width="202" height="25" viewBox="0 0 202 25">
  <g fill="#5F696C" fill-rule="evenodd">
    <path d="M13.1895985 7.51587973L13.1895985 1.35023321 19.1406686 1.35023321 19.1406686 19.2901873 13.3802062 19.2901873 13.3802062 17.8817445 13.332269 17.8817445C12.2616698 19.1452341 10.6192475 19.8243455 7.97699065 19.8243455 4.12146419 19.8243455.575247287 17.6637441.575247287 12.7364771.575247287 7.80806883 4.12146419 5.64746741 7.97699065 5.64746741 10.4046712 5.64746741 12.1189994 6.25353152 13.1428026 7.51587973L13.1895985 7.51587973zM9.92872251 15.7462531C12.2137326 15.7462531 13.1895985 14.6288581 13.1895985 12.7364771 13.1895985 10.8669234 12.2137326 9.72555978 9.90475388 9.72555978 7.76355564 9.72555978 6.66784653 11.0369866 6.66784653 12.7364771 6.66784653 14.4839049 7.62088519 15.7462531 9.92872251 15.7462531zM30.0886289 5.47740422C35.84795 5.47740422 40.0846919 7.44283245 39.9888173 14.0707313L26.8985175 14.0707313C26.8985175 15.0180631 27.8743834 16.4744431 30.4926717 16.4744431 32.0403608 16.4744431 32.9443208 16.1343168 33.5869085 15.3091108L39.9180528 15.3091108C39.4660728 16.6924436 38.4662382 17.8338073 36.9425177 18.6110759 35.4199386 19.3872032 33.3723322 19.8243455 30.6353421 19.8243455 24.3761038 19.8243455 20.8059182 17.4936809 20.8059182 12.6383199 20.8059182 8.05003792 24.2334333 5.47740422 30.0886289 5.47740422zM26.8985175 11.0118766L33.9920926 11.0118766C33.8722495 9.57946523 32.5163094 8.68121203 30.468703 8.68121203 28.3982693 8.68121203 27.207827 9.33749614 26.8985175 11.0118766zM47.5583412 8.56022748L47.5104039 8.56022748 47.5104039 6.01156242 41.7499415 6.01156242 41.7499415 19.2901873 47.7010116 19.2901873 47.7010116 14.3138417C47.7010116 11.4490189 49.962053 10.7447975 52.080424 10.7447975 53.1270545 10.7447975 54.0081872 10.9639394 55.0548177 11.2310185L55.0548177 5.7924206C54.41223 5.69540468 53.7456736 5.64746741 53.1030858 5.64746741 51.0566208 5.64746741 49.1048889 6.49664198 47.5583412 8.56022748M76.0239509 5.64746741C73.6190977 5.64746741 72.0485813 6.64273653 71.2393545 7.8560061 70.5488294 6.54572061 69.502199 5.64746741 66.931848 5.64746741 64.4562302 5.64746741 63.0044156 6.59365789 62.076487 7.83203746L62.0285497 7.83203746 62.0285497 6.01156242 56.2680873 6.01156242 56.2680873 19.2901873 62.2191574 19.2901873 62.2191574 12.2502562C62.2191574 10.623813 63.0044156 10.0166075 64.2416538 10.0166075 65.2894257 10.0166075 65.8361389 10.4537498 65.8361389 11.7891453L65.8361389 19.2901873 71.5966013 19.2901873 71.5966013 12.2502562C71.5966013 10.623813 72.3818595 10.0166075 73.6190977 10.0166075 74.6668695 10.0166075 75.2147241 10.4537498 75.2147241 11.7891453L75.2147241 19.2901873 81.1646529 19.2901873 81.1646529 10.1375921C81.1646529 6.90867426 78.8796428 5.64746741 76.0239509 5.64746741M101.44212 10.8178448L101.44212 17.2266018C101.44212 18.2469809 101.703492 18.853045 101.989974 19.2901873L95.8962337 19.2901873C95.7775319 18.9021236 95.7067673 18.4649814 95.6827987 17.9799018 94.3496859 19.24225 92.3260482 19.8243455 89.1610467 19.8243455 85.1628498 19.8243455 82.6392947 18.7320605 82.6392947 15.3330795 82.6392947 12.905399 84.3296543 11.352003 88.7330353 11.1579712L93.7550355 10.9148607C94.9443364 10.8418134 95.3495205 10.5507657 95.3495205 9.82257569 95.3495205 8.94829113 94.27778 8.53625884 92.5885618 8.53625884 91.2314804 8.53625884 89.8755404 8.7542593 89.5890581 10.0417175L83.6391293 10.0417175C83.9963761 8.22010111 84.7336971 7.10384745 86.2094803 6.39962606 87.6612949 5.71937332 89.8276031 5.47740422 92.9686359 5.47740422 99.0384079 5.47740422 101.44212 6.86073698 101.44212 10.8178448zM95.492191 13.8287622L95.492191 13.2455253C94.4923564 13.4635258 92.8019968 13.6096203 90.6836258 13.8036522 89.5890581 13.9006681 89.0651722 14.2659044 89.0651722 15.115079 89.0651722 16.0373008 89.8036345 16.6193963 91.2794177 16.6193963 93.2790868 16.6193963 95.492191 16.1103481 95.492191 13.8287622z"/>
    <polygon points="103.774 19.29 109.725 19.29 109.725 1.35 103.774 1.35"/>
    <path d="M121.030203 5.47740422C127.741421 5.47740422 130.669019 7.75899019 130.669019 12.6383199 130.669019 17.5427595 127.741421 19.8243455 121.030203 19.8243455 114.317843 19.8243455 111.390245 17.5427595 111.390245 12.6383199 111.390245 7.75899019 114.317843 5.47740422 121.030203 5.47740422zM121.030203 15.8923477C123.433915 15.8923477 124.433749 14.7749526 124.433749 12.6383199 124.433749 10.5507657 123.433915 9.41054341 121.030203 9.41054341 118.649318 9.41054341 117.625515 10.5507657 117.625515 12.6383199 117.625515 14.7749526 118.649318 15.8923477 121.030203 15.8923477zM144.855028 7.51587973L144.855028 6.01156242 150.614349 6.01156242 150.614349 18.3439968C150.614349 22.5921524 147.496144 24.2425642 141.546215 24.2425642 135.048431 24.2425642 132.692657 22.9071687 132.120834 19.581235L138.689382 19.581235C138.785256 20.0183773 138.998691 20.334535 139.427844 20.5525355 139.855855 20.770536 140.498443 20.8926619 141.403544 20.8926619 143.830083 20.8926619 144.66442 19.9944087 144.66442 18.1739336L144.66442 17.03257C143.473978 18.1008863 141.616979 18.4649814 139.498608 18.4649814 134.381875 18.4649814 131.620916 16.2313327 131.620916 12.0562244 131.620916 7.87997474 135.0724 5.64746741 139.498608 5.64746741 141.879493 5.64746741 143.664586 6.32657879 144.855028 7.51587973zM141.236905 14.8240313C143.759319 14.8240313 144.66442 13.6096203 144.66442 12.1772089 144.66442 10.7938762 143.759319 9.57946523 141.236905 9.57946523 138.785256 9.57946523 137.856186 10.7938762 137.856186 12.1772089 137.856186 13.6096203 138.785256 14.8240313 141.236905 14.8240313z"/>
    <polygon points="152.994 4.7 158.944 4.7 158.944 1.35 152.994 1.35"/>
    <polygon points="152.994 19.291 158.944 19.291 158.944 6.012 152.994 6.012"/>
    <path d="M170.439836 9.26444886C171.201126 9.26444886 172.034321 9.38543341 172.581034 9.67648114 173.248732 10.0166075 173.628806 10.5267971 173.699571 11.352003L179.935982 11.352003C179.293394 6.93378426 175.961753 5.47740422 170.36793 5.47740422 164.89395 5.47740422 160.609271 7.17689472 160.609271 12.6143512 160.609271 18.124855 164.89395 19.8243455 170.36793 19.8243455 174.462002 19.8243455 179.317363 19.1931714 179.935982 13.6826676L173.699571 13.6826676C173.295528 15.4061267 172.05829 15.8923477 170.391899 15.8923477 168.034983 15.8923477 166.845682 14.5809208 166.845682 12.5413039 166.845682 10.7687662 167.77361 9.26444886 170.439836 9.26444886M199.452159 10.8178448L199.452159 17.2266018C199.452159 18.2469809 199.714673 18.853045 200.000013 19.2901873L193.907414 19.2901873C193.788712 18.9021236 193.716807 18.4649814 193.692838 17.9799018 192.360866 19.24225 190.337229 19.8243455 187.171086 19.8243455 183.172889 19.8243455 180.650475 18.7320605 180.650475 15.3330795 180.650475 12.905399 182.339694 11.352003 186.743075 11.1579712L191.765075 10.9148607C192.955517 10.8418134 193.35956 10.5507657 193.35956 9.82257569 193.35956 8.94829113 192.288961 8.53625884 190.598601 8.53625884 189.242661 8.53625884 187.88558 8.7542593 187.600239 10.0417175L181.65031 10.0417175C182.006415 8.22010111 182.744878 7.10384745 184.220661 6.39962606 185.671334 5.71937332 187.837642 5.47740422 190.979816 5.47740422 197.048447 5.47740422 199.452159 6.86073698 199.452159 10.8178448zM193.50223 13.8287622L193.50223 13.2455253C192.502396 13.4635258 190.813177 13.6096203 188.694806 13.8036522 187.600239 13.9006681 187.076353 14.2659044 187.076353 15.115079 187.076353 16.0373008 187.814815 16.6193963 189.289457 16.6193963 191.289126 16.6193963 193.50223 16.1103481 193.50223 13.8287622zM199.598253 2.19027687C199.598253 2.79063416 199.22731 3.0531478 198.744513 3.11478144L199.680432 4.59170602 199.122305 4.59170602 198.254868 3.13760871 197.680763 3.13760871 197.680763 4.59170602 197.183128 4.59170602 197.183128 1.23609685 198.435204 1.23609685C199.212473 1.23609685 199.598253 1.52828595 199.598253 2.19027687zM197.680763 2.70617325L198.276554 2.70617325C198.7 2.70617325 199.07665 2.67535643 199.07665 2.15946005 199.07665 1.74400368 198.706848 1.66753231 198.359874 1.66753231L197.680763 1.66753231 197.680763 2.70617325z"/>
    <path d="M198.284544,0.00456545466 C199.839081,0.00456545466 201.167629,1.23609685 201.167629,2.90705325 C201.167629,4.59170602 199.839081,5.82323741 198.284544,5.82323741 C196.715169,5.82323741 195.386622,4.59170602 195.386622,2.90705325 C195.386622,1.23609685 196.715169,0.00456545466 198.284544,0.00456545466 Z M198.284544,5.33929922 C199.575426,5.33929922 200.593523,4.30750647 200.593523,2.90705325 C200.593523,1.52828595 199.575426,0.489645012 198.284544,0.489645012 C196.978824,0.489645012 195.959586,1.52828595 195.959586,2.90705325 C195.959586,4.30750647 196.978824,5.33929922 198.284544,5.33929922 Z"/>
  </g>
</svg>
